<svg width="80.000122" height="79.947464" viewBox="0 0 80.0001 79.9475" fill="none" xmlns="http://www.w3.org/2000/svg" xmlns:xlink="http://www.w3.org/1999/xlink">
	<desc>
			Created with Pixso.
	</desc>
	<defs/>
	<path id="Vector" d="M53.38 4.59C53.57 4.59 53.75 4.55 53.93 4.47C54.31 4.3 54.7 4.14 55.09 3.99C55.78 3.73 56.12 2.96 55.86 2.27C55.6 1.58 54.83 1.24 54.14 1.5C53.7 1.67 53.27 1.85 52.84 2.04C52.17 2.34 51.86 3.13 52.17 3.8C52.39 4.3 52.87 4.59 53.38 4.59Z" fill="#D4C17F" fill-opacity="1.000000" fill-rule="nonzero"/>
	<path id="Vector" d="M53.33 33.51C54.07 33.51 54.66 32.91 54.66 32.17L54.66 31.94C54.66 31.59 54.68 31.25 54.73 30.91C54.82 30.18 54.31 29.51 53.58 29.41C52.83 29.32 52.18 29.83 52.08 30.56C52.03 31.01 52 31.48 52 31.94L52 32.17C52 32.91 52.59 33.51 53.33 33.51Z" fill="#D4C17F" fill-opacity="1.000000" fill-rule="nonzero"/>
	<path id="Vector" d="M46.66 33.84C47.4 33.84 48 33.24 48 32.5L48 31.15C48 30.41 47.4 29.81 46.66 29.81C45.92 29.81 45.33 30.41 45.33 31.15L45.33 32.5C45.33 33.24 45.92 33.84 46.66 33.84Z" fill="#D4C17F" fill-opacity="1.000000" fill-rule="nonzero"/>
	<path id="Vector" d="M54.32 12.75C53.89 12.98 53.47 13.24 53.06 13.51C52.45 13.92 52.29 14.75 52.7 15.36C52.95 15.74 53.38 15.95 53.81 15.95C54.06 15.95 54.32 15.88 54.55 15.72C54.89 15.5 55.24 15.28 55.6 15.08C56.25 14.73 56.48 13.91 56.13 13.27C55.77 12.63 54.96 12.39 54.32 12.75Z" fill="#D4C17F" fill-opacity="1.000000" fill-rule="nonzero"/>
	<path id="Vector" d="M35.41 12.61C35.66 13.01 36.09 13.23 36.54 13.23C36.78 13.23 37.02 13.17 37.24 13.03C37.87 12.64 38.06 11.82 37.66 11.19C37.41 10.79 37.15 10.4 36.88 10.02C36.45 9.42 35.62 9.28 35.02 9.71C34.42 10.14 34.28 10.97 34.71 11.57C34.95 11.91 35.18 12.26 35.41 12.61Z" fill="#D4C17F" fill-opacity="1.000000" fill-rule="nonzero"/>
	<path id="Vector" d="M59.78 2.79C59.84 2.79 59.9 2.79 59.95 2.78C60.36 2.73 60.78 2.69 61.2 2.66C61.94 2.61 62.49 1.97 62.44 1.24C62.4 0.51 61.75 -0.05 61.03 0C60.55 0.03 60.08 0.08 59.62 0.13C58.89 0.23 58.37 0.89 58.46 1.62C58.55 2.3 59.12 2.79 59.78 2.79Z" fill="#D4C17F" fill-opacity="1.000000" fill-rule="nonzero"/>
	<path id="Vector" d="M54.84 24.69C54.34 25.23 54.37 26.07 54.91 26.57C55.17 26.81 55.49 26.93 55.82 26.93C56.18 26.93 56.53 26.79 56.8 26.5C57.07 26.21 57.38 25.92 57.7 25.66C58.28 25.21 58.38 24.37 57.92 23.79C57.46 23.21 56.62 23.12 56.04 23.58C55.61 23.92 55.21 24.29 54.84 24.69Z" fill="#D4C17F" fill-opacity="1.000000" fill-rule="nonzero"/>
	<path id="Vector" d="M42.75 13.03C42.97 13.17 43.21 13.23 43.46 13.23C43.9 13.23 44.33 13.01 44.58 12.61C44.81 12.26 45.04 11.91 45.28 11.57C45.71 10.97 45.58 10.14 44.98 9.71C44.37 9.28 43.54 9.42 43.12 10.02C42.84 10.4 42.58 10.79 42.33 11.19C41.94 11.82 42.12 12.64 42.75 13.03Z" fill="#D4C17F" fill-opacity="1.000000" fill-rule="nonzero"/>
	<path id="Vector" d="M53.33 39.94C54.07 39.94 54.66 39.35 54.66 38.61L54.66 37.94C54.66 37.21 54.07 36.61 53.33 36.61C52.59 36.61 52 37.21 52 37.94L52 38.61C52 39.35 52.59 39.94 53.33 39.94Z" fill="#D4C17F" fill-opacity="1.000000" fill-rule="nonzero"/>
	<path id="Vector" d="M46.63 27.06C46.7 27.07 46.76 27.07 46.82 27.07C47.47 27.07 48.04 26.59 48.14 25.92C48.19 25.51 48.26 25.1 48.36 24.7C48.52 23.98 48.07 23.27 47.35 23.11C46.63 22.95 45.92 23.39 45.75 24.11C45.65 24.59 45.56 25.07 45.49 25.56C45.39 26.29 45.91 26.96 46.63 27.06Z" fill="#D4C17F" fill-opacity="1.000000" fill-rule="nonzero"/>
	<path id="Vector" d="M37.56 17.15C37.69 17.54 37.81 17.94 37.92 18.35C38.08 18.94 38.62 19.33 39.21 19.33C39.32 19.33 39.44 19.31 39.56 19.28C39.72 19.24 39.87 19.16 40 19.06C40.12 19.16 40.27 19.24 40.43 19.28C40.55 19.31 40.67 19.33 40.78 19.33C41.37 19.33 41.91 18.94 42.07 18.35C42.18 17.94 42.3 17.54 42.43 17.15C42.67 16.45 42.3 15.69 41.6 15.46C40.96 15.24 40.29 15.55 39.99 16.14C39.7 15.55 39.03 15.24 38.39 15.46C37.69 15.69 37.32 16.45 37.56 17.15Z" fill="#D4C17F" fill-opacity="1.000000" fill-rule="nonzero"/>
	<path id="Vector" d="M47.78 8.18C48.09 8.18 48.4 8.07 48.66 7.85C48.97 7.58 49.3 7.31 49.63 7.05C50.21 6.61 50.32 5.77 49.87 5.19C49.42 4.6 48.58 4.49 48 4.94C47.63 5.23 47.26 5.53 46.91 5.84C46.35 6.32 46.29 7.16 46.78 7.72C47.04 8.02 47.41 8.18 47.78 8.18Z" fill="#D4C17F" fill-opacity="1.000000" fill-rule="nonzero"/>
	<path id="Vector" d="M48.82 17.51C48.52 17.9 48.25 18.3 47.99 18.72C47.59 19.34 47.78 20.16 48.4 20.56C48.62 20.69 48.87 20.76 49.11 20.76C49.56 20.76 49.99 20.54 50.24 20.14C50.46 19.79 50.7 19.45 50.95 19.12C51.39 18.53 51.27 17.69 50.68 17.25C50.1 16.8 49.26 16.93 48.82 17.51Z" fill="#D4C17F" fill-opacity="1.000000" fill-rule="nonzero"/>
	<path id="Vector" d="M61.3 10.66C60.8 10.7 60.32 10.76 59.84 10.84C59.11 10.96 58.62 11.64 58.74 12.37C58.85 13.02 59.41 13.49 60.06 13.49C60.13 13.49 60.2 13.48 60.27 13.47C60.68 13.4 61.09 13.35 61.5 13.32C62.24 13.26 62.79 12.62 62.73 11.89C62.67 11.15 62.05 10.6 61.3 10.66Z" fill="#D4C17F" fill-opacity="1.000000" fill-rule="nonzero"/>
	<path id="Vector" d="M66.23 2.89C66.65 2.96 67.06 3.03 67.47 3.12C67.56 3.15 67.66 3.15 67.75 3.15C68.37 3.15 68.92 2.73 69.06 2.11C69.21 1.39 68.76 0.68 68.04 0.52C67.58 0.42 67.12 0.33 66.65 0.26C65.92 0.14 65.24 0.64 65.12 1.36C65.01 2.09 65.5 2.77 66.23 2.89Z" fill="#D4C17F" fill-opacity="1.000000" fill-rule="nonzero"/>
	<path id="Vector" d="M68.51 11.62C68.05 11.46 67.58 11.31 67.11 11.19C66.4 11 65.67 11.42 65.48 12.13C65.29 12.85 65.72 13.57 66.43 13.76C66.83 13.87 67.22 13.99 67.61 14.13C67.76 14.19 67.91 14.21 68.06 14.21C68.61 14.21 69.12 13.87 69.32 13.33C69.57 12.63 69.2 11.87 68.51 11.62Z" fill="#D4C17F" fill-opacity="1.000000" fill-rule="nonzero"/>
	<path id="Vector" d="M62.12 21.29C61.38 21.33 60.82 21.95 60.85 22.69C60.89 23.42 61.47 23.98 62.25 23.95C62.66 23.93 63.08 23.94 63.49 23.99C63.54 23.99 63.58 23.99 63.63 23.99C64.3 23.99 64.88 23.48 64.95 22.8C65.03 22.06 64.49 21.41 63.76 21.33C63.22 21.28 62.66 21.26 62.12 21.29Z" fill="#D4C17F" fill-opacity="1.000000" fill-rule="nonzero"/>
	<path id="Vector" d="M77.68 8.84C77.94 9.13 78.3 9.28 78.66 9.28C78.98 9.28 79.3 9.16 79.56 8.93C80.1 8.43 80.14 7.59 79.65 7.04C79.49 6.87 79.32 6.7 79.16 6.53C78.64 6 77.8 6 77.28 6.51C76.75 7.03 76.74 7.87 77.25 8.4C77.4 8.54 77.54 8.69 77.68 8.84Z" fill="#D4C17F" fill-opacity="1.000000" fill-rule="nonzero"/>
	<path id="Vector" d="M57.33 50.61L41.33 50.61C40.59 50.61 40 51.21 40 51.94C40 52.68 40.59 53.28 41.33 53.28L57.33 53.28C61.07 53.28 64 50.35 64 46.61L64 43.94C64 43.21 63.4 42.61 62.66 42.61L17.33 42.61C16.59 42.61 16 43.21 16 43.94L16 46.61C16 50.35 18.92 53.28 22.66 53.28L34.66 53.28L34.66 59.94C34.66 60.68 35.26 61.28 36 61.28C36.73 61.28 37.33 60.68 37.33 59.94L37.33 51.94C37.33 51.21 36.73 50.61 36 50.61L22.66 50.61C20.42 50.61 18.66 48.85 18.66 46.61L18.66 45.28L61.33 45.28L61.33 46.61C61.33 48.85 59.57 50.61 57.33 50.61Z" fill="#D4C17F" fill-opacity="1.000000" fill-rule="nonzero"/>
	<path id="Vector" d="M70.64 31.37C70.66 31.56 70.66 31.75 70.66 31.94C70.66 32.68 71.26 33.28 72 33.28C72.73 33.28 73.33 32.68 73.33 31.94C73.33 31.69 73.32 31.43 73.3 31.18C73.25 30.45 72.62 29.89 71.88 29.95C71.14 30 70.59 30.64 70.64 31.37Z" fill="#D4C17F" fill-opacity="1.000000" fill-rule="nonzero"/>
	<path id="Vector" d="M67.83 24.05C67.34 24.61 67.39 25.45 67.94 25.93C68.25 26.21 68.54 26.5 68.8 26.82C69.07 27.14 69.45 27.3 69.83 27.3C70.13 27.3 70.43 27.2 70.68 26.99C71.25 26.52 71.33 25.68 70.85 25.11C70.51 24.69 70.12 24.3 69.71 23.93C69.16 23.45 68.31 23.5 67.83 24.05Z" fill="#D4C17F" fill-opacity="1.000000" fill-rule="nonzero"/>
	<path id="Vector" d="M41.33 30.53C41.33 29.8 40.73 29.2 40 29.2C39.26 29.2 38.66 29.8 38.66 30.53L38.66 32.02C38.66 32.75 39.26 33.35 40 33.35C40.73 33.35 41.33 32.75 41.33 32.02L41.33 30.53Z" fill="#D4C17F" fill-opacity="1.000000" fill-rule="nonzero"/>
	<path id="Vector" d="M40 36.61C39.26 36.61 38.66 37.21 38.66 37.94L38.66 38.61C38.66 39.34 39.26 39.94 40 39.94C40.73 39.94 41.33 39.34 41.33 38.61L41.33 37.94C41.33 37.21 40.73 36.61 40 36.61Z" fill="#D4C17F" fill-opacity="1.000000" fill-rule="nonzero"/>
	<path id="Vector" d="M45.33 38.61C45.33 39.34 45.92 39.94 46.66 39.94C47.4 39.94 48 39.34 48 38.61L48 37.94C48 37.21 47.4 36.61 46.66 36.61C45.92 36.61 45.33 37.21 45.33 37.94L45.33 38.61Z" fill="#D4C17F" fill-opacity="1.000000" fill-rule="nonzero"/>
	<path id="Vector" d="M41.33 23.94C41.33 23.73 41.33 23.52 41.34 23.31C41.35 22.75 41.01 22.26 40.51 22.05C40.46 22.03 40.4 22.03 40.35 22.01C40.25 21.99 40.15 21.95 40.04 21.94C40.03 21.94 40.02 21.94 40 21.94C40 21.94 40 21.94 40 21.94C39.99 21.94 39.99 21.94 39.99 21.94C39.97 21.94 39.96 21.94 39.95 21.94C39.84 21.95 39.74 21.99 39.64 22.01C39.59 22.03 39.53 22.03 39.48 22.05C38.98 22.26 38.64 22.75 38.65 23.31C38.66 23.52 38.66 23.73 38.66 23.94L38.66 24.61C38.66 25.35 39.26 25.94 40 25.94C40.73 25.94 41.33 25.35 41.33 24.61L41.33 23.94Z" fill="#D4C17F" fill-opacity="1.000000" fill-rule="nonzero"/>
	<path id="Vector" d="M32 38.61C32 39.34 32.59 39.94 33.33 39.94C34.07 39.94 34.66 39.34 34.66 38.61L34.66 37.94C34.66 37.21 34.07 36.61 33.33 36.61C32.59 36.61 32 37.21 32 37.94L32 38.61Z" fill="#D4C17F" fill-opacity="1.000000" fill-rule="nonzero"/>
	<path id="Vector" d="M33.33 33.84C34.07 33.84 34.66 33.24 34.66 32.5L34.66 31.15C34.66 30.41 34.07 29.81 33.33 29.81C32.59 29.81 32 30.41 32 31.15L32 32.5C32 33.24 32.59 33.84 33.33 33.84Z" fill="#D4C17F" fill-opacity="1.000000" fill-rule="nonzero"/>
	<path id="Vector" d="M28 38.61L28 37.94C28 37.21 27.4 36.61 26.66 36.61C25.92 36.61 25.33 37.21 25.33 37.94L25.33 38.61C25.33 39.34 25.92 39.94 26.66 39.94C27.4 39.94 28 39.35 28 38.61Z" fill="#D4C17F" fill-opacity="1.000000" fill-rule="nonzero"/>
	<path id="Vector" d="M9.31 26.99C9.56 27.2 9.86 27.3 10.16 27.3C10.54 27.3 10.92 27.14 11.19 26.82C11.45 26.5 11.74 26.21 12.05 25.93C12.6 25.45 12.65 24.61 12.16 24.05C11.68 23.5 10.84 23.45 10.28 23.93C9.87 24.3 9.48 24.69 9.14 25.11C8.66 25.68 8.74 26.52 9.31 26.99Z" fill="#D4C17F" fill-opacity="1.000000" fill-rule="nonzero"/>
	<path id="Vector" d="M73.33 63.94L45.33 63.94L45.33 57.28C45.33 56.54 44.73 55.94 44 55.94C43.26 55.94 42.66 56.54 42.66 57.28L42.66 65.28C42.66 66.01 43.26 66.61 44 66.61L72 66.61L72 73.28C72 75.48 70.2 77.28 68 77.28L12 77.28C9.79 77.28 8 75.48 8 73.28L8 66.61L38.77 66.61C39.51 66.61 40.11 66.01 40.11 65.28C40.11 64.54 39.51 63.94 38.77 63.94L6.66 63.94C5.92 63.94 5.33 64.54 5.33 65.28L5.33 73.28C5.33 76.95 8.32 79.94 12 79.94L68 79.94C71.67 79.94 74.66 76.95 74.66 73.28L74.66 65.28C74.66 64.54 74.07 63.94 73.33 63.94Z" fill="#D4C17F" fill-opacity="1.000000" fill-rule="nonzero"/>
	<path id="Vector" d="M32 70.61L32 73.28C32 74.01 32.59 74.61 33.33 74.61C34.07 74.61 34.66 74.01 34.66 73.28L34.66 70.61C34.66 69.87 34.07 69.28 33.33 69.28C32.59 69.28 32 69.87 32 70.61Z" fill="#D4C17F" fill-opacity="1.000000" fill-rule="nonzero"/>
	<path id="Vector" d="M1.39 25.94C1.37 25.94 1.36 25.94 1.34 25.94C0.63 25.94 0.03 26.51 0.01 27.23C0 27.47 0 27.7 0 27.94C0 28.68 0.59 29.28 1.33 29.28C2.07 29.28 2.66 28.68 2.66 27.94C2.66 27.73 2.67 27.53 2.67 27.32C2.7 26.59 2.12 25.97 1.39 25.94Z" fill="#D4C17F" fill-opacity="1.000000" fill-rule="nonzero"/>
	<path id="Vector" d="M7.15 17.38C7.45 17.09 7.76 16.82 8.08 16.56C8.65 16.09 8.73 15.25 8.27 14.68C7.8 14.11 6.96 14.03 6.39 14.49C6.01 14.8 5.65 15.13 5.3 15.47C4.77 15.98 4.75 16.82 5.26 17.35C5.52 17.62 5.87 17.76 6.22 17.76C6.56 17.76 6.89 17.63 7.15 17.38Z" fill="#D4C17F" fill-opacity="1.000000" fill-rule="nonzero"/>
	<path id="Vector" d="M3.62 19.57C2.97 19.24 2.16 19.51 1.83 20.17C1.62 20.6 1.41 21.05 1.23 21.5C0.96 22.19 1.29 22.96 1.97 23.24C2.14 23.3 2.3 23.33 2.47 23.33C3 23.33 3.5 23.01 3.71 22.49C3.86 22.11 4.03 21.73 4.22 21.36C4.55 20.7 4.28 19.9 3.62 19.57Z" fill="#D4C17F" fill-opacity="1.000000" fill-rule="nonzero"/>
	<path id="Vector" d="M6.02 5.53C6.25 5.53 6.48 5.47 6.69 5.35C7.05 5.15 7.42 4.95 7.79 4.77C8.45 4.44 8.72 3.64 8.4 2.98C8.07 2.32 7.27 2.05 6.61 2.37C6.19 2.58 5.77 2.81 5.36 3.04C4.72 3.41 4.5 4.23 4.87 4.86C5.12 5.29 5.56 5.53 6.02 5.53Z" fill="#D4C17F" fill-opacity="1.000000" fill-rule="nonzero"/>
	<path id="Vector" d="M18.66 70.61L18.66 73.28C18.66 74.01 19.26 74.61 20 74.61C20.73 74.61 21.33 74.01 21.33 73.28L21.33 70.61C21.33 69.87 20.73 69.28 20 69.28C19.26 69.28 18.66 69.87 18.66 70.61Z" fill="#D4C17F" fill-opacity="1.000000" fill-rule="nonzero"/>
	<path id="Vector" d="M78.02 23.24C78.7 22.96 79.03 22.19 78.76 21.5C78.58 21.05 78.37 20.6 78.16 20.17C77.83 19.51 77.03 19.25 76.37 19.57C75.71 19.9 75.44 20.7 75.77 21.36C75.96 21.73 76.13 22.11 76.28 22.49C76.49 23.01 76.99 23.33 77.52 23.33C77.69 23.33 77.85 23.3 78.02 23.24Z" fill="#D4C17F" fill-opacity="1.000000" fill-rule="nonzero"/>
	<path id="Vector" d="M79.98 27.23C79.96 26.49 79.3 25.9 78.6 25.94C77.87 25.97 77.29 26.59 77.32 27.32C77.32 27.53 77.33 27.73 77.33 27.94C77.33 28.68 77.92 29.28 78.66 29.28C79.4 29.28 80 28.68 80 27.94C80 27.7 79.99 27.47 79.98 27.23Z" fill="#D4C17F" fill-opacity="1.000000" fill-rule="nonzero"/>
	<path id="Vector" d="M74.63 3.04C74.22 2.81 73.8 2.58 73.38 2.37C72.72 2.05 71.92 2.32 71.59 2.98C71.27 3.64 71.54 4.44 72.2 4.77C72.57 4.95 72.94 5.15 73.3 5.35C73.51 5.47 73.74 5.53 73.96 5.53C74.43 5.53 74.88 5.29 75.12 4.86C75.49 4.23 75.27 3.41 74.63 3.04Z" fill="#D4C17F" fill-opacity="1.000000" fill-rule="nonzero"/>
	<path id="Vector" d="M61.33 73.28L61.33 70.61C61.33 69.87 60.73 69.28 60 69.28C59.26 69.28 58.66 69.87 58.66 70.61L58.66 73.28C58.66 74.01 59.26 74.61 60 74.61C60.73 74.61 61.33 74.01 61.33 73.28Z" fill="#D4C17F" fill-opacity="1.000000" fill-rule="nonzero"/>
	<path id="Vector" d="M48 73.28L48 70.61C48 69.87 47.4 69.28 46.66 69.28C45.92 69.28 45.33 69.87 45.33 70.61L45.33 73.28C45.33 74.01 45.92 74.61 46.66 74.61C47.4 74.61 48 74.01 48 73.28Z" fill="#D4C17F" fill-opacity="1.000000" fill-rule="nonzero"/>
	<path id="Vector" d="M73.6 14.49C73.03 14.03 72.19 14.11 71.72 14.68C71.26 15.25 71.34 16.09 71.91 16.56C72.23 16.82 72.54 17.09 72.84 17.38C73.1 17.63 73.43 17.76 73.77 17.76C74.12 17.76 74.46 17.62 74.73 17.35C75.24 16.82 75.22 15.98 74.69 15.47C74.34 15.13 73.98 14.8 73.6 14.49Z" fill="#D4C17F" fill-opacity="1.000000" fill-rule="nonzero"/>
	<path id="Vector" d="M8.11 29.95C7.35 29.89 6.74 30.45 6.69 31.18C6.67 31.43 6.66 31.69 6.66 31.94C6.66 32.68 7.26 33.28 8 33.28C8.73 33.28 9.33 32.68 9.33 31.94C9.33 31.75 9.34 31.56 9.35 31.37C9.4 30.64 8.85 30 8.11 29.95Z" fill="#D4C17F" fill-opacity="1.000000" fill-rule="nonzero"/>
	<path id="Vector" d="M26.41 29.41C25.68 29.51 25.17 30.18 25.26 30.91C25.31 31.25 25.33 31.59 25.33 31.94L25.33 32.17C25.33 32.91 25.92 33.51 26.66 33.51C27.4 33.51 28 32.91 28 32.17L28 31.94C28 31.48 27.97 31.01 27.91 30.56C27.81 29.83 27.15 29.32 26.41 29.41Z" fill="#D4C17F" fill-opacity="1.000000" fill-rule="nonzero"/>
	<path id="Vector" d="M24.9 3.99C25.29 4.14 25.68 4.3 26.06 4.47C26.24 4.55 26.42 4.59 26.61 4.59C27.12 4.59 27.6 4.3 27.82 3.8C28.13 3.13 27.82 2.34 27.15 2.04C26.72 1.85 26.29 1.67 25.85 1.5C25.16 1.24 24.39 1.58 24.13 2.27C23.87 2.96 24.21 3.73 24.9 3.99Z" fill="#D4C17F" fill-opacity="1.000000" fill-rule="nonzero"/>
	<path id="Vector" d="M24.39 15.08C24.75 15.28 25.1 15.5 25.44 15.72C25.67 15.88 25.93 15.95 26.18 15.95C26.61 15.95 27.04 15.74 27.29 15.36C27.7 14.75 27.54 13.92 26.93 13.51C26.52 13.24 26.1 12.98 25.67 12.75C25.03 12.39 24.22 12.63 23.86 13.27C23.51 13.91 23.74 14.73 24.39 15.08Z" fill="#D4C17F" fill-opacity="1.000000" fill-rule="nonzero"/>
	<path id="Vector" d="M1.33 9.28C1.69 9.28 2.05 9.13 2.31 8.84C2.45 8.69 2.59 8.54 2.74 8.4C3.25 7.87 3.24 7.03 2.72 6.51C2.19 6 1.35 6.01 0.83 6.53C0.67 6.7 0.5 6.87 0.34 7.04C-0.15 7.59 -0.11 8.43 0.43 8.93C0.69 9.16 1.01 9.28 1.33 9.28Z" fill="#D4C17F" fill-opacity="1.000000" fill-rule="nonzero"/>
	<path id="Vector" d="M22.29 25.66C22.61 25.92 22.92 26.21 23.2 26.5C23.46 26.79 23.82 26.93 24.17 26.93C24.5 26.93 24.82 26.81 25.08 26.57C25.62 26.07 25.65 25.23 25.15 24.69C24.78 24.29 24.38 23.92 23.95 23.58C23.37 23.12 22.53 23.21 22.07 23.79C21.61 24.37 21.71 25.21 22.29 25.66Z" fill="#D4C17F" fill-opacity="1.000000" fill-rule="nonzero"/>
	<path id="Vector" d="M29.75 20.14C30 20.54 30.44 20.76 30.88 20.76C31.12 20.76 31.37 20.69 31.59 20.56C32.21 20.16 32.4 19.34 32 18.72C31.74 18.3 31.47 17.9 31.17 17.51C30.73 16.93 29.9 16.8 29.31 17.25C28.72 17.69 28.6 18.53 29.04 19.12C29.29 19.45 29.53 19.79 29.75 20.14Z" fill="#D4C17F" fill-opacity="1.000000" fill-rule="nonzero"/>
	<path id="Vector" d="M30.36 7.05C30.7 7.31 31.02 7.58 31.34 7.85C31.59 8.07 31.9 8.18 32.21 8.18C32.58 8.18 32.95 8.02 33.22 7.72C33.7 7.16 33.64 6.32 33.08 5.84C32.73 5.53 32.36 5.23 31.99 4.94C31.41 4.49 30.57 4.6 30.12 5.19C29.67 5.77 29.78 6.61 30.36 7.05Z" fill="#D4C17F" fill-opacity="1.000000" fill-rule="nonzero"/>
	<path id="Vector" d="M12.24 3.15C12.33 3.15 12.43 3.15 12.52 3.12C12.93 3.03 13.34 2.96 13.76 2.89C14.49 2.77 14.98 2.09 14.87 1.36C14.75 0.64 14.07 0.14 13.34 0.26C12.87 0.33 12.41 0.42 11.95 0.52C11.23 0.68 10.78 1.39 10.94 2.11C11.07 2.73 11.62 3.15 12.24 3.15Z" fill="#D4C17F" fill-opacity="1.000000" fill-rule="nonzero"/>
	<path id="Vector" d="M18.79 2.66C19.21 2.69 19.63 2.73 20.04 2.78C20.1 2.79 20.15 2.79 20.21 2.79C20.87 2.79 21.44 2.3 21.53 1.62C21.62 0.89 21.1 0.23 20.37 0.13C19.91 0.08 19.44 0.03 18.97 0C18.25 -0.05 17.59 0.51 17.55 1.24C17.5 1.97 18.05 2.61 18.79 2.66Z" fill="#D4C17F" fill-opacity="1.000000" fill-rule="nonzero"/>
	<path id="Vector" d="M32.64 23.11C31.92 23.27 31.47 23.98 31.63 24.7C31.73 25.1 31.8 25.51 31.85 25.92C31.95 26.59 32.52 27.07 33.18 27.07C33.24 27.07 33.3 27.07 33.36 27.06C34.08 26.96 34.6 26.29 34.5 25.56C34.43 25.07 34.34 24.59 34.24 24.11C34.07 23.4 33.36 22.95 32.64 23.11Z" fill="#D4C17F" fill-opacity="1.000000" fill-rule="nonzero"/>
	<path id="Vector" d="M11.93 14.21C12.08 14.21 12.23 14.19 12.38 14.13C12.77 13.99 13.16 13.87 13.56 13.76C14.27 13.57 14.7 12.85 14.51 12.13C14.32 11.42 13.59 11 12.88 11.19C12.41 11.31 11.94 11.46 11.48 11.62C10.79 11.87 10.42 12.63 10.67 13.33C10.87 13.87 11.38 14.21 11.93 14.21Z" fill="#D4C17F" fill-opacity="1.000000" fill-rule="nonzero"/>
	<path id="Vector" d="M18.49 13.32C18.9 13.35 19.31 13.4 19.72 13.47C19.79 13.48 19.86 13.49 19.94 13.49C20.58 13.49 21.14 13.02 21.25 12.37C21.37 11.64 20.88 10.96 20.15 10.84C19.67 10.76 19.19 10.7 18.69 10.66C17.97 10.6 17.32 11.15 17.26 11.89C17.2 12.62 17.75 13.26 18.49 13.32Z" fill="#D4C17F" fill-opacity="1.000000" fill-rule="nonzero"/>
	<path id="Vector" d="M16.36 23.99C16.41 23.99 16.46 23.99 16.5 23.99C16.91 23.94 17.33 23.93 17.74 23.95C18.51 23.99 19.1 23.42 19.14 22.69C19.17 21.95 18.61 21.33 17.87 21.29C17.33 21.26 16.77 21.28 16.23 21.33C15.5 21.41 14.96 22.06 15.04 22.8C15.11 23.48 15.69 23.99 16.36 23.99Z" fill="#D4C17F" fill-opacity="1.000000" fill-rule="nonzero"/>
</svg>
